<?xml version="1.0" encoding="UTF-8" standalone="no"?>
<!DOCTYPE svg PUBLIC "-//W3C//DTD SVG 1.1//EN" "http://www.w3.org/Graphics/SVG/1.1/DTD/svg11.dtd">
<svg xmlns="http://www.w3.org/2000/svg" version="1.1" viewBox="0 0 1024 1024" xmlns:xlink="http://www.w3.org/1999/xlink">
<defs>
<path d="M 0.00 0.00 L 1024.00 0.00 L 1024.00 1024.00 L 0.00 1024.00 L 0.00 0.00 Z M 839.14 56.26 C 817.39 64.29 801.34 80.48 787.61 98.58 C 776.92 112.32 768.60 127.92 757.45 141.23 C 755.44 140.07 753.59 138.69 751.81 137.21 C 738.56 126.53 727.00 114.81 713.03 104.95 C 704.11 98.57 694.41 93.41 683.94 90.07 C 669.92 85.55 654.66 83.89 640.03 82.63 C 623.79 81.33 607.29 80.26 591.00 80.98 C 580.49 81.51 568.96 82.82 559.34 87.32 C 552.96 90.28 547.53 95.04 544.36 101.37 C 540.38 109.13 539.58 118.42 539.74 127.00 C 540.08 140.02 542.45 153.18 545.12 165.91 C 548.26 180.96 552.48 194.92 554.35 210.23 C 556.68 230.24 555.60 250.89 555.22 271.00 C 553.62 331.49 549.63 393.07 539.79 452.81 C 508.45 419.63 473.65 389.78 435.77 364.29 C 411.76 348.09 386.91 333.49 360.48 321.58 C 332.20 308.83 302.00 298.96 270.99 296.09 C 260.92 294.72 251.09 295.33 240.96 295.21 C 221.36 296.00 202.16 300.28 183.81 307.12 C 174.00 307.29 163.92 306.88 154.00 307.24 C 124.34 308.62 94.70 313.46 65.73 319.83 C 56.38 321.83 49.08 331.50 49.96 341.06 C 50.03 346.36 52.93 351.66 56.85 355.14 C 118.25 412.08 165.44 482.44 199.22 558.83 C 206.80 576.65 213.28 594.83 219.95 613.00 C 231.06 643.71 241.51 674.62 251.99 705.54 C 221.00 711.06 190.16 716.11 159.40 723.04 C 144.91 726.14 130.40 729.82 116.26 734.24 C 105.44 737.69 94.58 741.66 84.47 746.88 C 74.97 751.69 65.81 757.73 58.08 765.09 C 49.30 773.65 42.61 784.96 40.23 797.04 C 38.82 803.62 40.30 810.13 39.27 816.78 C 38.58 822.21 37.19 827.46 35.79 832.73 C 33.62 841.65 32.51 850.84 32.16 860.00 C 32.05 865.65 32.02 871.87 33.68 877.31 C 35.64 883.65 40.53 889.22 44.93 894.04 C 52.31 902.18 61.01 908.95 70.45 914.55 C 86.98 924.37 105.91 931.20 124.23 936.87 C 155.95 946.46 188.44 953.70 220.94 960.09 C 253.42 966.23 286.15 971.98 319.06 975.24 C 347.47 977.81 375.52 976.81 404.00 977.00 C 425.28 976.60 446.61 975.68 467.77 973.34 C 502.80 968.90 537.22 962.40 571.08 952.30 C 594.53 945.37 617.31 937.07 640.01 928.01 C 661.43 919.51 682.40 910.08 704.01 902.02 C 724.62 894.19 745.65 887.53 767.00 882.07 C 794.30 875.09 822.24 869.66 849.94 864.51 C 877.50 859.50 905.31 853.90 932.26 846.20 C 942.71 843.13 953.33 839.83 963.19 835.16 C 967.41 833.05 972.01 830.68 974.48 826.47 C 977.02 822.23 978.14 816.89 979.01 812.07 C 981.00 800.25 981.69 787.93 982.67 775.99 C 983.10 770.51 983.67 765.07 983.61 759.56 C 984.72 752.78 985.93 746.07 986.68 739.22 C 987.83 729.04 990.59 719.22 991.23 709.01 C 991.97 699.38 992.00 689.61 991.73 679.96 C 990.87 651.07 987.05 622.13 981.54 593.77 C 976.86 569.22 972.66 544.88 970.11 519.99 C 965.97 480.20 966.16 440.89 965.97 400.99 C 966.30 353.93 966.52 305.81 971.42 258.97 C 976.64 215.07 982.21 170.22 983.04 126.00 C 983.18 110.98 982.94 95.35 979.97 80.58 C 978.46 73.37 975.87 64.83 970.45 59.56 C 964.41 53.88 955.18 51.18 947.23 49.56 C 937.72 47.79 927.95 46.77 918.27 47.07 C 892.63 46.79 863.34 46.76 839.14 56.26 Z" id="p0" />
<path d="M 918.27 47.07 C 921.28 49.19 924.63 49.52 928.12 50.29 C 938.97 53.20 949.21 57.65 956.45 66.58 C 959.53 70.38 960.41 74.74 961.22 79.44 C 962.05 84.25 960.84 89.14 960.28 94.01 C 959.30 102.08 956.36 109.48 952.51 116.57 C 941.48 138.56 927.14 158.46 910.68 176.70 C 902.17 186.83 893.40 196.69 884.24 206.23 C 878.17 213.43 870.70 218.40 863.05 223.71 C 859.39 224.78 855.48 226.37 851.64 226.49 C 847.17 225.16 843.23 221.20 839.48 218.48 C 832.42 213.27 826.18 207.19 819.46 201.57 C 811.02 194.35 803.23 186.50 795.52 178.52 C 784.49 167.33 773.05 156.45 762.44 144.85 C 764.79 140.50 767.42 136.33 769.50 131.83 C 771.29 129.51 772.91 127.08 774.39 124.55 C 778.90 116.89 784.02 109.59 789.78 102.82 C 797.12 93.56 804.77 84.46 813.70 76.67 C 817.50 73.38 820.89 69.99 824.95 67.03 C 829.80 63.34 835.10 60.98 839.14 56.26 C 863.34 46.76 892.63 46.79 918.27 47.07 Z" id="p1" />
<path d="M 918.27 47.07 C 927.95 46.77 937.72 47.79 947.23 49.56 C 955.18 51.18 964.41 53.88 970.45 59.56 C 975.87 64.83 978.46 73.37 979.97 80.58 C 977.20 91.20 973.19 101.41 968.12 111.13 C 961.67 121.91 955.30 132.68 947.52 142.58 C 940.06 153.61 931.46 163.71 923.09 174.04 C 918.43 180.69 912.35 185.97 907.41 192.38 C 903.03 198.04 897.43 202.42 892.86 207.92 C 884.70 217.40 875.49 225.81 866.99 234.96 C 865.39 236.38 863.64 238.88 861.19 237.94 C 857.88 235.45 855.14 231.95 853.90 227.97 C 857.24 227.01 860.29 225.87 863.05 223.71 C 870.70 218.40 878.17 213.43 884.24 206.23 C 893.40 196.69 902.17 186.83 910.68 176.70 C 927.14 158.46 941.48 138.56 952.51 116.57 C 956.36 109.48 959.30 102.08 960.28 94.01 C 960.84 89.14 962.05 84.25 961.22 79.44 C 960.41 74.74 959.53 70.38 956.45 66.58 C 949.21 57.65 938.97 53.20 928.12 50.29 C 924.63 49.52 921.28 49.19 918.27 47.07 Z" id="p2" />
<path d="M 839.14 56.26 C 835.10 60.98 829.80 63.34 824.95 67.03 C 820.89 69.99 817.50 73.38 813.70 76.67 C 804.77 84.46 797.12 93.56 789.78 102.82 C 784.02 109.59 778.90 116.89 774.39 124.55 C 772.91 127.08 771.29 129.51 769.50 131.83 C 765.53 134.66 764.31 138.97 761.13 142.52 C 759.91 142.06 758.68 141.65 757.45 141.23 C 768.60 127.92 776.92 112.32 787.61 98.58 C 801.34 80.48 817.39 64.29 839.14 56.26 Z" id="p3" />
<path d="M 591.00 80.98 C 607.29 80.26 623.79 81.33 640.03 82.63 C 654.66 83.89 669.92 85.55 683.94 90.07 C 694.41 93.41 704.11 98.57 713.03 104.95 C 727.00 114.81 738.56 126.53 751.81 137.21 C 753.59 138.69 755.44 140.07 757.45 141.23 C 758.68 141.65 759.91 142.06 761.13 142.52 C 764.31 138.97 765.53 134.66 769.50 131.83 C 767.42 136.33 764.79 140.50 762.44 144.85 C 773.05 156.45 784.49 167.33 795.52 178.52 C 803.23 186.50 811.02 194.35 819.46 201.57 C 826.18 207.19 832.42 213.27 839.48 218.48 C 843.23 221.20 847.17 225.16 851.64 226.49 C 855.48 226.37 859.39 224.78 863.05 223.71 C 860.29 225.87 857.24 227.01 853.90 227.97 C 855.14 231.95 857.88 235.45 861.19 237.94 C 863.64 238.88 865.39 236.38 866.99 234.96 C 875.49 225.81 884.70 217.40 892.86 207.92 C 897.43 202.42 903.03 198.04 907.41 192.38 C 912.35 185.97 918.43 180.69 923.09 174.04 C 931.46 163.71 940.06 153.61 947.52 142.58 C 955.30 132.68 961.67 121.91 968.12 111.13 C 973.19 101.41 977.20 91.20 979.97 80.58 C 982.94 95.35 983.18 110.98 983.04 126.00 C 982.21 170.22 976.64 215.07 971.42 258.97 C 966.52 305.81 966.30 353.93 965.97 400.99 C 966.16 440.89 965.97 480.20 970.11 519.99 C 972.66 544.88 976.86 569.22 981.54 593.77 C 987.05 622.13 990.87 651.07 991.73 679.96 C 992.00 689.61 991.97 699.38 991.23 709.01 C 990.59 719.22 987.83 729.04 986.68 739.22 C 985.93 746.07 984.72 752.78 983.61 759.56 C 982.16 762.58 980.73 765.95 978.44 768.43 C 971.00 774.84 962.89 775.69 954.28 779.33 C 948.63 781.60 942.64 782.69 936.91 784.77 C 927.39 787.79 917.55 789.72 907.94 792.45 C 892.66 795.68 877.35 799.05 861.95 801.66 C 853.37 802.32 845.46 805.37 837.02 806.69 C 831.33 807.69 825.83 809.13 820.00 809.17 C 814.22 809.22 808.72 810.73 802.98 811.20 C 798.21 811.54 793.70 812.93 789.02 813.72 C 780.58 814.84 772.37 817.39 764.07 819.27 C 751.88 822.51 739.83 825.29 728.14 830.18 C 721.19 833.21 713.87 834.85 707.07 838.19 C 704.12 839.60 701.13 840.88 697.99 841.80 C 692.13 843.50 686.67 846.21 680.86 848.05 C 675.11 850.42 669.74 853.31 663.68 854.91 C 657.00 857.69 650.16 859.88 643.37 862.37 C 634.85 866.06 626.09 869.05 617.35 872.16 C 612.11 873.80 606.90 875.38 601.92 877.71 C 596.86 880.08 591.39 880.40 586.21 882.46 C 581.58 884.30 576.79 885.54 571.92 886.60 C 564.52 888.16 557.58 891.12 550.15 892.56 C 544.79 893.60 539.51 894.82 534.21 896.15 C 524.49 897.77 515.11 900.60 505.31 901.84 C 499.48 904.16 493.46 903.68 487.47 905.20 C 482.28 906.47 477.04 905.63 471.85 906.94 C 467.95 907.92 464.03 908.23 460.02 908.38 C 455.50 908.58 451.48 910.28 447.02 910.73 C 441.77 911.29 436.35 910.53 431.00 910.94 C 426.72 911.23 422.64 912.36 418.36 912.63 C 405.90 913.29 393.47 913.11 381.00 913.17 C 373.11 913.24 365.30 912.61 357.42 913.41 C 353.28 913.17 349.13 913.34 345.00 913.06 C 340.91 912.78 337.06 911.70 333.01 911.16 C 324.86 910.10 316.97 910.78 308.98 910.78 C 304.34 910.80 300.55 908.59 296.03 908.19 C 292.22 907.82 288.40 908.56 284.61 908.28 C 281.32 907.72 278.53 905.91 275.01 905.86 C 270.92 905.73 267.03 906.13 263.02 904.96 C 259.38 903.87 255.71 903.70 251.94 903.53 C 249.01 903.39 246.85 901.80 244.02 901.25 C 234.93 900.74 225.94 898.32 217.05 896.43 C 177.06 888.81 138.47 876.11 101.27 859.66 C 93.31 855.56 85.00 852.25 77.13 847.97 C 69.53 844.46 61.85 841.51 54.83 836.30 C 51.04 833.04 47.67 829.28 44.08 825.81 C 41.45 823.27 40.04 820.31 39.27 816.78 C 40.30 810.13 38.82 803.62 40.23 797.04 C 42.61 784.96 49.30 773.65 58.08 765.09 C 65.81 757.73 74.97 751.69 84.47 746.88 C 84.19 749.20 84.03 749.82 82.14 751.24 C 75.22 756.34 68.37 760.10 63.52 767.57 C 60.22 772.63 57.00 779.20 59.85 785.18 C 62.25 789.71 65.49 794.24 69.35 797.63 C 75.51 802.33 82.40 805.88 89.77 808.26 C 99.62 812.41 109.84 815.87 120.20 818.50 C 128.61 819.78 136.39 823.11 144.72 824.66 C 151.65 825.98 158.01 827.70 165.00 828.02 C 170.26 828.19 175.01 830.03 180.16 830.76 C 186.88 831.65 193.14 833.42 199.99 833.24 C 204.59 833.15 209.12 833.33 213.64 834.31 C 218.75 835.35 223.82 835.19 229.00 835.14 C 235.15 835.05 241.10 835.85 247.22 835.46 C 261.87 834.36 277.01 836.13 291.61 834.38 C 297.64 833.23 303.71 833.19 309.79 832.55 C 317.93 831.24 326.08 830.02 334.19 828.52 C 342.47 827.40 350.66 826.15 358.61 823.50 C 365.90 821.02 373.55 820.41 380.82 817.84 C 389.59 814.67 398.41 811.76 407.05 808.22 C 416.03 805.23 424.48 801.22 432.86 796.85 C 446.38 790.88 459.41 783.92 471.78 775.82 C 482.95 768.94 493.59 761.10 503.60 752.62 C 513.96 743.49 524.28 734.83 533.37 724.37 C 538.48 718.14 544.26 712.59 549.05 706.09 C 559.77 693.90 568.74 679.48 578.15 666.22 C 582.70 659.85 585.73 652.60 589.75 645.82 C 597.37 631.32 605.80 617.80 611.82 602.52 C 614.58 596.52 617.27 590.62 619.39 584.36 C 625.68 569.92 629.93 554.86 635.30 540.07 C 638.44 528.24 642.09 516.59 644.74 504.64 C 650.41 478.75 656.63 451.81 658.63 425.41 C 660.82 415.53 660.55 405.48 662.51 395.60 C 663.66 388.98 662.40 382.45 663.81 375.83 C 667.27 360.30 665.37 342.81 666.22 327.00 C 667.34 318.68 667.18 310.34 667.92 301.99 C 668.34 297.00 667.39 292.27 666.55 287.38 C 665.86 283.43 666.15 279.55 666.45 275.59 C 666.98 269.01 665.80 262.62 665.97 256.00 C 666.07 250.66 666.16 245.33 665.79 239.99 C 665.26 230.57 665.44 221.44 663.88 212.06 C 662.56 204.62 663.76 197.24 662.16 189.84 C 660.65 183.32 661.38 176.66 659.82 170.18 C 658.34 164.13 657.90 157.96 656.10 151.98 C 653.71 142.86 651.74 134.11 647.50 125.56 C 645.82 122.24 644.12 118.93 642.47 115.59 C 639.78 110.06 635.72 104.95 631.89 100.14 C 627.99 95.12 621.97 91.52 616.42 88.57 C 607.50 84.80 597.29 83.83 587.79 85.63 C 577.23 88.42 567.58 92.92 559.89 100.85 C 553.53 108.95 548.76 118.19 549.40 128.79 C 549.87 135.12 549.60 141.51 550.43 147.80 C 552.43 159.08 553.78 170.50 554.33 181.94 C 554.78 189.49 557.22 196.38 557.02 204.00 C 556.90 209.37 556.98 214.70 557.92 220.01 C 559.66 229.33 558.23 238.70 559.77 248.07 C 560.65 258.68 561.24 269.36 560.94 280.00 C 561.40 299.00 560.76 317.99 561.10 337.00 C 561.38 345.82 558.76 354.20 558.95 363.00 C 559.13 373.42 557.48 383.61 557.03 394.00 C 556.82 399.67 555.11 405.00 554.54 410.61 C 553.86 421.50 551.23 432.15 550.28 443.04 C 549.99 446.83 549.52 450.59 548.50 454.27 C 545.31 466.27 543.93 479.24 539.64 490.86 C 537.90 495.91 537.98 501.12 536.31 506.19 C 534.52 511.81 531.90 517.02 530.61 522.82 C 529.49 527.96 527.59 532.78 525.62 537.64 C 522.01 547.77 517.38 557.70 511.95 566.98 C 507.85 573.01 504.90 579.64 500.51 585.47 C 492.55 596.53 484.65 607.30 474.41 616.42 C 466.09 624.87 456.80 632.12 447.41 639.33 C 438.69 645.77 428.83 650.84 419.38 656.38 C 410.09 660.88 401.64 666.42 391.90 669.98 C 385.31 672.85 378.77 675.59 372.03 678.10 C 357.41 684.51 340.80 688.14 325.54 693.21 C 315.31 695.65 305.19 698.47 295.01 701.10 C 279.22 703.74 263.85 707.68 248.00 709.99 C 243.25 710.77 238.77 712.31 233.95 712.70 C 225.52 713.46 217.29 715.23 208.99 716.52 C 201.32 717.26 193.73 718.44 186.28 720.43 C 180.59 722.03 174.69 722.28 168.93 723.63 C 165.62 724.48 162.63 723.69 159.40 723.04 C 190.16 716.11 221.00 711.06 251.99 705.54 C 265.38 703.09 278.82 700.69 292.11 697.69 L 292.35 696.49 L 293.30 697.43 C 316.82 692.52 339.87 685.89 361.99 676.46 C 389.40 664.72 416.28 650.72 440.98 633.97 C 458.42 622.11 475.69 608.55 489.80 592.80 C 497.76 583.98 504.15 573.96 509.24 563.24 C 518.32 544.22 524.48 523.58 529.55 503.17 C 533.69 486.50 536.94 469.75 539.79 452.81 C 549.63 393.07 553.62 331.49 555.22 271.00 C 555.60 250.89 556.68 230.24 554.35 210.23 C 552.48 194.92 548.26 180.96 545.12 165.91 C 542.45 153.18 540.08 140.02 539.74 127.00 C 539.58 118.42 540.38 109.13 544.36 101.37 C 547.53 95.04 552.96 90.28 559.34 87.32 C 568.96 82.82 580.49 81.51 591.00 80.98 Z" id="p4" />
<path d="M 587.79 85.63 C 597.29 83.83 607.50 84.80 616.42 88.57 C 621.97 91.52 627.99 95.12 631.89 100.14 C 635.72 104.95 639.78 110.06 642.47 115.59 C 644.12 118.93 645.82 122.24 647.50 125.56 C 651.74 134.11 653.71 142.86 656.10 151.98 C 657.90 157.96 658.34 164.13 659.82 170.18 C 661.38 176.66 660.65 183.32 662.16 189.84 C 663.76 197.24 662.56 204.62 663.88 212.06 C 665.44 221.44 665.26 230.57 665.79 239.99 C 666.16 245.33 666.07 250.66 665.97 256.00 C 665.80 262.62 666.98 269.01 666.45 275.59 C 666.15 279.55 665.86 283.43 666.55 287.38 C 667.39 292.27 668.34 297.00 667.92 301.99 C 667.18 310.34 667.34 318.68 666.22 327.00 C 665.37 342.81 667.27 360.30 663.81 375.83 C 662.40 382.45 663.66 388.98 662.51 395.60 C 660.55 405.48 660.82 415.53 658.63 425.41 C 656.63 451.81 650.41 478.75 644.74 504.64 C 642.09 516.59 638.44 528.24 635.30 540.07 C 629.93 554.86 625.68 569.92 619.39 584.36 C 617.27 590.62 614.58 596.52 611.82 602.52 C 605.80 617.80 597.37 631.32 589.75 645.82 C 585.73 652.60 582.70 659.85 578.15 666.22 C 568.74 679.48 559.77 693.90 549.05 706.09 C 544.26 712.59 538.48 718.14 533.37 724.37 C 524.28 734.83 513.96 743.49 503.60 752.62 C 493.59 761.10 482.95 768.94 471.78 775.82 C 459.41 783.92 446.38 790.88 432.86 796.85 C 424.48 801.22 416.03 805.23 407.05 808.22 C 398.41 811.76 389.59 814.67 380.82 817.84 C 373.55 820.41 365.90 821.02 358.61 823.50 C 350.66 826.15 342.47 827.40 334.19 828.52 C 326.08 830.02 317.93 831.24 309.79 832.55 C 303.71 833.19 297.64 833.23 291.61 834.38 C 277.01 836.13 261.87 834.36 247.22 835.46 C 241.10 835.85 235.15 835.05 229.00 835.14 C 223.82 835.19 218.75 835.35 213.64 834.31 C 209.12 833.33 204.59 833.15 199.99 833.24 C 193.14 833.42 186.88 831.65 180.16 830.76 C 175.01 830.03 170.26 828.19 165.00 828.02 C 158.01 827.70 151.65 825.98 144.72 824.66 C 136.39 823.11 128.61 819.78 120.20 818.50 C 109.84 815.87 99.62 812.41 89.77 808.26 C 82.40 805.88 75.51 802.33 69.35 797.63 C 65.49 794.24 62.25 789.71 59.85 785.18 C 57.00 779.20 60.22 772.63 63.52 767.57 C 68.37 760.10 75.22 756.34 82.14 751.24 C 84.03 749.82 84.19 749.20 84.47 746.88 C 94.58 741.66 105.44 737.69 116.26 734.24 C 130.40 729.82 144.91 726.14 159.40 723.04 C 162.63 723.69 165.62 724.48 168.93 723.63 C 174.69 722.28 180.59 722.03 186.28 720.43 C 193.73 718.44 201.32 717.26 208.99 716.52 C 217.29 715.23 225.52 713.46 233.95 712.70 C 238.77 712.31 243.25 710.77 248.00 709.99 C 263.85 707.68 279.22 703.74 295.01 701.10 C 305.19 698.47 315.31 695.65 325.54 693.21 C 340.80 688.14 357.41 684.51 372.03 678.10 C 378.77 675.59 385.31 672.85 391.90 669.98 C 401.64 666.42 410.09 660.88 419.38 656.38 C 428.83 650.84 438.69 645.77 447.41 639.33 C 456.80 632.12 466.09 624.87 474.41 616.42 C 484.65 607.30 492.55 596.53 500.51 585.47 C 504.90 579.64 507.85 573.01 511.95 566.98 C 517.38 557.70 522.01 547.77 525.62 537.64 C 527.59 532.78 529.49 527.96 530.61 522.82 C 531.90 517.02 534.52 511.81 536.31 506.19 C 537.98 501.12 537.90 495.91 539.64 490.86 C 543.93 479.24 545.31 466.27 548.50 454.27 C 549.52 450.59 549.99 446.83 550.28 443.04 C 551.23 432.15 553.86 421.50 554.54 410.61 C 555.11 405.00 556.82 399.67 557.03 394.00 C 557.48 383.61 559.13 373.42 558.95 363.00 C 558.76 354.20 561.38 345.82 561.10 337.00 C 560.76 317.99 561.40 299.00 560.94 280.00 C 561.24 269.36 560.65 258.68 559.77 248.07 C 558.23 238.70 559.66 229.33 557.92 220.01 C 556.98 214.70 556.90 209.37 557.02 204.00 C 557.22 196.38 554.78 189.49 554.33 181.94 C 553.78 170.50 552.43 159.08 550.43 147.80 C 549.60 141.51 549.87 135.12 549.40 128.79 C 548.76 118.19 553.53 108.95 559.89 100.85 C 567.58 92.92 577.23 88.42 587.79 85.63 Z M 347.01 696.01 C 342.01 696.31 337.27 695.48 332.29 696.61 C 326.78 697.84 321.18 698.41 315.71 699.82 C 310.07 701.27 304.45 700.84 298.90 702.68 C 286.77 706.83 273.39 707.31 261.08 710.42 C 257.81 711.23 254.50 711.84 251.18 712.44 C 242.28 714.05 234.02 717.38 224.99 718.78 C 217.49 719.87 210.26 721.90 202.85 723.48 C 197.39 724.79 192.21 726.86 186.65 727.80 C 178.56 729.32 171.15 732.88 163.00 734.21 C 156.17 735.39 149.91 737.05 143.41 739.46 C 131.61 742.78 119.67 745.99 108.16 750.24 C 100.51 753.60 93.16 754.45 86.13 759.04 C 81.01 762.15 76.86 766.84 76.10 772.97 C 75.70 776.96 75.37 781.55 76.69 785.39 C 80.17 791.40 86.53 794.31 92.99 796.03 C 100.23 797.81 106.91 801.07 114.11 802.94 C 121.46 804.97 128.62 807.36 136.20 808.46 C 144.70 809.70 152.50 812.86 160.98 813.84 C 167.39 814.50 173.53 816.19 180.01 816.19 C 187.52 816.31 194.51 818.84 202.00 819.00 C 213.90 819.17 225.76 818.60 237.65 819.33 C 244.78 819.33 251.86 818.74 259.00 819.07 C 265.18 819.22 270.84 816.95 277.00 816.95 C 282.69 816.94 288.24 816.99 293.78 815.46 C 299.90 813.78 306.20 814.29 312.23 812.41 C 320.13 810.01 328.09 807.88 336.18 806.23 C 356.62 801.43 375.82 793.48 392.24 780.19 C 400.08 774.63 406.64 767.05 411.99 759.11 C 416.38 752.10 420.79 744.28 421.98 736.00 C 422.60 731.87 423.88 727.44 423.50 723.26 C 422.19 715.52 420.19 708.37 413.45 703.63 C 407.93 700.11 401.61 696.87 395.03 696.10 C 389.88 695.38 385.28 693.72 380.00 693.90 C 373.99 694.10 368.01 694.00 362.00 693.91 C 356.81 693.77 352.10 695.56 347.01 696.01 Z" id="p5" />
<path d="M 240.96 295.21 C 251.09 295.33 260.92 294.72 270.99 296.09 C 302.00 298.96 332.20 308.83 360.48 321.58 C 386.91 333.49 411.76 348.09 435.77 364.29 C 473.65 389.78 508.45 419.63 539.79 452.81 C 536.94 469.75 533.69 486.50 529.55 503.17 C 488.79 455.46 440.31 413.75 386.31 381.69 C 357.56 364.45 326.46 350.01 293.73 342.32 C 281.02 339.55 267.93 337.53 254.92 337.43 C 266.35 343.05 277.52 349.08 288.55 355.46 C 302.45 363.18 315.19 373.36 326.49 384.51 C 342.52 400.61 356.15 418.49 368.43 437.57 C 381.27 457.63 392.64 478.64 402.78 500.18 C 408.06 511.84 413.71 523.40 418.58 535.23 C 421.41 542.53 416.76 551.51 409.03 553.18 C 402.94 554.76 395.81 551.56 393.34 545.67 C 378.23 510.39 360.73 474.72 338.93 443.06 C 320.92 417.03 298.62 391.73 270.37 376.62 C 249.46 365.12 227.65 353.51 204.98 345.96 C 199.11 343.27 194.58 349.10 188.04 348.87 C 181.49 348.51 175.01 348.17 168.43 348.35 C 149.89 348.18 131.29 350.05 112.98 352.85 C 149.72 391.74 180.97 435.31 206.95 482.04 C 218.75 503.13 229.23 524.90 239.01 547.00 C 248.57 569.96 256.69 593.60 265.12 617.00 C 274.24 643.48 283.56 669.90 292.35 696.49 L 292.11 697.69 C 278.82 700.69 265.38 703.09 251.99 705.54 C 241.51 674.62 231.06 643.71 219.95 613.00 C 213.28 594.83 206.80 576.65 199.22 558.83 C 165.44 482.44 118.25 412.08 56.85 355.14 C 52.93 351.66 50.03 346.36 49.96 341.06 C 49.08 331.50 56.38 321.83 65.73 319.83 C 94.70 313.46 124.34 308.62 154.00 307.24 C 163.92 306.88 174.00 307.29 183.81 307.12 C 202.16 300.28 221.36 296.00 240.96 295.21 Z" id="p6" />
<path d="M 254.92 337.43 C 267.93 337.53 281.02 339.55 293.73 342.32 C 326.46 350.01 357.56 364.45 386.31 381.69 C 440.31 413.75 488.79 455.46 529.55 503.17 C 524.48 523.58 518.32 544.22 509.24 563.24 C 504.15 573.96 497.76 583.98 489.80 592.80 C 475.69 608.55 458.42 622.11 440.98 633.97 C 416.28 650.72 389.40 664.72 361.99 676.46 C 360.45 673.48 358.95 670.48 357.55 667.43 C 331.62 611.82 305.42 557.26 275.29 503.70 C 261.65 479.42 246.28 456.27 230.91 433.07 C 213.61 407.52 195.96 382.47 176.41 358.57 C 173.59 355.28 170.88 351.92 168.43 348.35 C 175.01 348.17 181.49 348.51 188.04 348.87 C 194.58 349.10 199.11 343.27 204.98 345.96 C 227.65 353.51 249.46 365.12 270.37 376.62 C 298.62 391.73 320.92 417.03 338.93 443.06 C 360.73 474.72 378.23 510.39 393.34 545.67 C 395.81 551.56 402.94 554.76 409.03 553.18 C 416.76 551.51 421.41 542.53 418.58 535.23 C 413.71 523.40 408.06 511.84 402.78 500.18 C 392.64 478.64 381.27 457.63 368.43 437.57 C 356.15 418.49 342.52 400.61 326.49 384.51 C 315.19 373.36 302.45 363.18 288.55 355.46 C 277.52 349.08 266.35 343.05 254.92 337.43 Z" id="p7" />
<path d="M 168.43 348.35 C 170.88 351.92 173.59 355.28 176.41 358.57 C 195.96 382.47 213.61 407.52 230.91 433.07 C 246.28 456.27 261.65 479.42 275.29 503.70 C 305.42 557.26 331.62 611.82 357.55 667.43 C 358.95 670.48 360.45 673.48 361.99 676.46 C 339.87 685.89 316.82 692.52 293.30 697.43 L 292.35 696.49 C 283.56 669.90 274.24 643.48 265.12 617.00 C 256.69 593.60 248.57 569.96 239.01 547.00 C 229.23 524.90 218.75 503.13 206.95 482.04 C 180.97 435.31 149.72 391.74 112.98 352.85 C 131.29 350.05 149.89 348.18 168.43 348.35 Z" id="p8" />
<path d="M 362.00 693.91 C 368.01 694.00 373.99 694.10 380.00 693.90 C 385.28 693.72 389.88 695.38 395.03 696.10 C 401.61 696.87 407.93 700.11 413.45 703.63 C 420.19 708.37 422.19 715.52 423.50 723.26 C 423.88 727.44 422.60 731.87 421.98 736.00 C 420.79 744.28 416.38 752.10 411.99 759.11 C 406.64 767.05 400.08 774.63 392.24 780.19 C 375.82 793.48 356.62 801.43 336.18 806.23 C 328.09 807.88 320.13 810.01 312.23 812.41 C 306.20 814.29 299.90 813.78 293.78 815.46 C 288.24 816.99 282.69 816.94 277.00 816.95 C 270.84 816.95 265.18 819.22 259.00 819.07 C 251.86 818.74 244.78 819.33 237.65 819.33 C 225.76 818.60 213.90 819.17 202.00 819.00 C 194.51 818.84 187.52 816.31 180.01 816.19 C 173.53 816.19 167.39 814.50 160.98 813.84 C 152.50 812.86 144.70 809.70 136.20 808.46 C 128.62 807.36 121.46 804.97 114.11 802.94 C 106.91 801.07 100.23 797.81 92.99 796.03 C 86.53 794.31 80.17 791.40 76.69 785.39 C 75.37 781.55 75.70 776.96 76.10 772.97 C 76.86 766.84 81.01 762.15 86.13 759.04 C 93.16 754.45 100.51 753.60 108.16 750.24 C 119.67 745.99 131.61 742.78 143.41 739.46 C 149.91 737.05 156.17 735.39 163.00 734.21 C 171.15 732.88 178.56 729.32 186.65 727.80 C 192.21 726.86 197.39 724.79 202.85 723.48 C 210.26 721.90 217.49 719.87 224.99 718.78 C 234.02 717.38 242.28 714.05 251.18 712.44 C 254.50 711.84 257.81 711.23 261.08 710.42 C 273.39 707.31 286.77 706.83 298.90 702.68 C 304.45 700.84 310.07 701.27 315.71 699.82 C 321.18 698.41 326.78 697.84 332.29 696.61 C 337.27 695.48 342.01 696.31 347.01 696.01 C 352.10 695.56 356.81 693.77 362.00 693.91 Z" id="p9" />
<path d="M 983.61 759.56 C 983.67 765.07 983.10 770.51 982.67 775.99 C 981.69 787.93 981.00 800.25 979.01 812.07 C 978.14 816.89 977.02 822.23 974.48 826.47 C 972.01 830.68 967.41 833.05 963.19 835.16 C 953.33 839.83 942.71 843.13 932.26 846.20 C 905.31 853.90 877.50 859.50 849.94 864.51 C 822.24 869.66 794.30 875.09 767.00 882.07 C 745.65 887.53 724.62 894.19 704.01 902.02 C 682.40 910.08 661.43 919.51 640.01 928.01 C 617.31 937.07 594.53 945.37 571.08 952.30 C 537.22 962.40 502.80 968.90 467.77 973.34 C 446.61 975.68 425.28 976.60 404.00 977.00 C 375.52 976.81 347.47 977.81 319.06 975.24 C 325.29 969.97 330.31 963.79 336.00 957.95 C 347.59 944.67 357.62 930.53 368.10 916.39 C 364.59 915.21 360.98 914.42 357.42 913.41 C 365.30 912.61 373.11 913.24 381.00 913.17 C 393.47 913.11 405.90 913.29 418.36 912.63 C 422.64 912.36 426.72 911.23 431.00 910.94 C 436.35 910.53 441.77 911.29 447.02 910.73 C 451.48 910.28 455.50 908.58 460.02 908.38 C 464.03 908.23 467.95 907.92 471.85 906.94 C 477.04 905.63 482.28 906.47 487.47 905.20 C 493.46 903.68 499.48 904.16 505.31 901.84 C 515.11 900.60 524.49 897.77 534.21 896.15 C 539.51 894.82 544.79 893.60 550.15 892.56 C 557.58 891.12 564.52 888.16 571.92 886.60 C 576.79 885.54 581.58 884.30 586.21 882.46 C 591.39 880.40 596.86 880.08 601.92 877.71 C 606.90 875.38 612.11 873.80 617.35 872.16 C 626.09 869.05 634.85 866.06 643.37 862.37 C 650.16 859.88 657.00 857.69 663.68 854.91 C 669.74 853.31 675.11 850.42 680.86 848.05 C 686.67 846.21 692.13 843.50 697.99 841.80 C 701.13 840.88 704.12 839.60 707.07 838.19 C 713.87 834.85 721.19 833.21 728.14 830.18 C 739.83 825.29 751.88 822.51 764.07 819.27 C 772.37 817.39 780.58 814.84 789.02 813.72 C 793.70 812.93 798.21 811.54 802.98 811.20 C 808.72 810.73 814.22 809.22 820.00 809.17 C 825.83 809.13 831.33 807.69 837.02 806.69 C 845.46 805.37 853.37 802.32 861.95 801.66 C 877.35 799.05 892.66 795.68 907.94 792.45 C 917.55 789.72 927.39 787.79 936.91 784.77 C 942.64 782.69 948.63 781.60 954.28 779.33 C 962.89 775.69 971.00 774.84 978.44 768.43 C 980.73 765.95 982.16 762.58 983.61 759.56 Z" id="p10" />
<path d="M 39.27 816.78 C 40.04 820.31 41.45 823.27 44.08 825.81 C 47.67 829.28 51.04 833.04 54.83 836.30 C 61.85 841.51 69.53 844.46 77.13 847.97 C 85.00 852.25 93.31 855.56 101.27 859.66 C 138.47 876.11 177.06 888.81 217.05 896.43 C 225.94 898.32 234.93 900.74 244.02 901.25 C 246.85 901.80 249.01 903.39 251.94 903.53 C 255.71 903.70 259.38 903.87 263.02 904.96 C 267.03 906.13 270.92 905.73 275.01 905.86 C 278.53 905.91 281.32 907.72 284.61 908.28 C 288.40 908.56 292.22 907.82 296.03 908.19 C 300.55 908.59 304.34 910.80 308.98 910.78 C 316.97 910.78 324.86 910.10 333.01 911.16 C 337.06 911.70 340.91 912.78 345.00 913.06 C 349.13 913.34 353.28 913.17 357.42 913.41 C 360.98 914.42 364.59 915.21 368.10 916.39 C 357.62 930.53 347.59 944.67 336.00 957.95 C 330.31 963.79 325.29 969.97 319.06 975.24 C 286.15 971.98 253.42 966.23 220.94 960.09 C 188.44 953.70 155.95 946.46 124.23 936.87 C 105.91 931.20 86.98 924.37 70.45 914.55 C 61.01 908.95 52.31 902.18 44.93 894.04 C 40.53 889.22 35.64 883.65 33.68 877.31 C 32.02 871.87 32.05 865.65 32.16 860.00 C 32.51 850.84 33.62 841.65 35.79 832.73 C 37.19 827.46 38.58 822.21 39.27 816.78 Z" id="p11" />
</defs>
<g stroke-width="10pt">
<use stroke="#4c3b29" xlink:href="#p1" />
<use stroke="#69533b" xlink:href="#p2" />
<use stroke="#68523a" xlink:href="#p3" />
<use stroke="#634c31" xlink:href="#p4" />
<use stroke="#6a543b" xlink:href="#p5" />
<use stroke="#000000" xlink:href="#p6" />
<use stroke="#f37171" xlink:href="#p7" />
<use stroke="#f15e5e" xlink:href="#p8" />
<use stroke="#705b41" xlink:href="#p9" />
<use stroke="#594c3d" xlink:href="#p10" />
<use stroke="#635748" xlink:href="#p11" />
</g>
<g>
<use fill="#4c3b29" xlink:href="#p1" />
<use fill="#69533b" xlink:href="#p2" />
<use fill="#68523a" xlink:href="#p3" />
<use fill="#634c31" xlink:href="#p4" />
<use fill="#6a543b" xlink:href="#p5" />
<use fill="#000000" xlink:href="#p6" />
<use fill="#f37171" xlink:href="#p7" />
<use fill="#f15e5e" xlink:href="#p8" />
<use fill="#705b41" xlink:href="#p9" />
<use fill="#594c3d" xlink:href="#p10" />
<use fill="#635748" xlink:href="#p11" />
</g>
</svg>
